Coordinates
version=1
nRows=13
nColumns=36
inDegrees=yes

Units are S.I. units (second, meters, Newtons, ...)
If the header above contains a line with 'inDegrees', this indicates whether rotational values are in degrees (yes) or radians (no).

endheader
time	pelvis_tilt	pelvis_list	pelvis_rotation	pelvis_tx	pelvis_ty	pelvis_tz	hip_flexion_r	hip_adduction_r	hip_rotation_r	knee_angle_r	knee_angle_r_beta	ankle_angle_r	subtalar_angle_r	mtp_angle_r	hip_flexion_l	hip_adduction_l	hip_rotation_l	knee_angle_l	knee_angle_l_beta	ankle_angle_l	subtalar_angle_l	mtp_angle_l	lumbar_extension	lumbar_bending	lumbar_rotation	arm_flex_r	arm_add_r	arm_rot_r	elbow_flex_r	pro_sup_r	arm_flex_l	arm_add_l	arm_rot_l	elbow_flex_l	pro_sup_l
      1.20833330	    -12.88249993	     -0.26058366	      0.29769019	     -1.05661855	      1.38404935	     -0.04563805	     13.24664094	      0.40649324	     -0.18295980	      7.22872921	      0.12616513	      9.46350899	     -0.55017307	     -7.49999987	     13.57816444	     -0.30644651	      1.06621399	      8.48442837	      0.14808121	      9.44527951	     -2.05666404	     -7.49999987	     -4.80010493	      2.48759698	     -1.05071316	    -13.87726176	     -6.22035906	    -28.26521075	     28.12415328	     87.58782732	     -8.76912119	     -5.81134992	    -15.14121601	     24.79896391	     96.68230721
      1.21250000	    -12.94139443	     -0.30835211	      0.33386256	     -1.05651744	      1.38375815	     -0.04606815	     13.20622163	      0.51441618	     -0.30322312	      7.23898035	      0.12634404	      9.37884302	     -0.60131990	     -7.49999987	     13.50411125	     -0.41887980	      1.05062063	      8.39000258	      0.14643317	      9.36889313	     -1.76167253	     -7.49999987	     -4.87156632	      2.33601824	     -1.22023580	    -14.52806065	     -6.02275556	    -28.48588630	     28.69596503	     86.25320760	     -9.29412033	     -5.95554108	    -15.54699215	     24.68075671	     95.29369987
      1.21666670	    -12.85353237	     -0.33328835	      0.37937674	     -1.05542009	      1.38676311	     -0.04551208	     12.97750304	      0.57723558	     -0.46650532	      7.15792202	      0.12492931	      9.38966724	     -0.45161337	     -7.49999987	     13.26809266	     -0.51122238	      0.98014001	      8.28180590	      0.14454478	      9.32278032	     -1.34165761	     -7.49999987	     -5.04147449	      2.16325160	     -1.40143492	    -15.28679948	     -5.73897043	    -28.85564186	     29.29720813	     83.61818282	     -9.74571347	     -6.07722563	    -16.04410536	     24.46815366	     92.12312334
      1.22083330	    -12.88918580	     -0.35405533	      0.42090753	     -1.05377614	      1.38410772	     -0.04516908	     12.88737925	      0.63209719	     -0.63616415	      7.11926033	      0.12425453	      9.41961386	     -0.41804611	     -7.49999987	     13.18383516	     -0.59228469	      0.91725997	      8.23840820	      0.14378735	      9.35515651	     -0.99085107	     -7.49999987	     -5.03984764	      2.05187704	     -1.29616460	    -16.16067420	     -5.19427450	    -30.94220022	     30.38228335	     85.96815796	     -9.95225365	     -6.23374465	    -17.09000973	     23.95591882	     94.37178037
      1.22500000	    -12.97298961	     -0.32844875	      0.43039352	     -1.05719282	      1.38650675	     -0.04768947	     12.96513380	      0.58999194	     -0.77453736	      7.14484218	      0.12470102	      9.39209776	     -0.39632383	     -7.49999987	     13.19408199	     -0.55937645	      0.95460920	      8.10369572	      0.14143617	      9.16529331	     -0.83508752	     -7.49999987	     -5.11558889	      1.88894794	     -1.48228916	    -16.58461895	     -5.11598753	    -30.94141766	     30.63212172	     86.01663307	    -10.33880907	     -6.38358176	    -17.28350988	     23.83379829	     94.35959751
      1.22916670	    -12.99372565	     -0.34984545	      0.52722455	     -1.05522184	      1.38847777	     -0.04709156	     12.91657061	      0.60197741	     -0.85662387	      7.02651929	      0.12263590	      9.35786077	     -0.33364849	     -7.49999987	     13.14999203	     -0.57082880	      1.03193043	      8.01074293	      0.13981384	      9.08177057	     -0.67665280	     -7.49999987	     -5.30281541	      1.79174461	     -1.74126268	    -17.17880693	     -4.95517954	    -31.00469026	     31.53736341	     84.68306429	    -10.71020887	     -6.46252414	    -17.76484727	     23.79031122	     92.79032042
      1.23333330	    -13.04004437	     -0.37624767	      0.59606669	     -1.05610243	      1.38656046	     -0.04700574	     12.96973583	      0.62081558	     -1.01810786	      7.04516700	      0.12296136	      9.33569133	     -0.32582741	     -7.49999987	     13.17988643	     -0.58567602	      1.12828825	      7.92622667	      0.13833875	      8.99529823	     -0.54284561	     -7.49999987	     -5.53012695	      1.70868183	     -1.90764979	    -17.86469820	     -4.80930418	    -31.15715278	     32.62776934	     83.00946590	    -11.00486756	     -6.54160017	    -18.22728407	     23.73645570	     90.93109445
      1.23750000	    -13.11132008	     -0.40885284	      0.64350560	     -1.05412843	      1.38254646	     -0.04636177	     13.07230279	      0.66630874	     -1.12012804	      7.14970771	      0.12478594	      9.44033280	     -0.28289409	     -7.49999987	     13.33043635	     -0.62753919	      1.04910648	      7.98909054	      0.13943593	      9.15336117	     -0.24529761	     -7.49999987	     -5.63076260	      1.64350443	     -1.92074708	    -18.48598051	     -4.45573797	    -32.82597115	     33.61283377	     87.26246404	    -11.24955273	     -6.44647703	    -20.50488709	     23.48000887	     94.06733185
      1.24166670	    -13.21559056	     -0.42656681	      0.66818391	     -1.05414763	      1.38313719	     -0.04568026	     13.20465684	      0.70698771	     -1.28329954	      7.26492827	      0.12679692	      9.52641456	     -0.24653268	     -7.49999987	     13.51427732	     -0.64988977	      1.06882035	      8.02849277	      0.14012363	      9.32168047	      0.00012918	     -7.49999987	     -5.74526840	      1.53070727	     -2.00499849	    -19.04203049	     -4.30464410	    -32.93549917	     34.23610072	     85.83826280	    -11.72614186	     -6.60138700	    -20.84897616	     23.41257320	     92.35567615
      1.24583330	    -13.24592804	     -0.46760670	      0.64504458	     -1.05295782	      1.38256413	     -0.04511691	     13.30538077	      0.77522312	     -1.27338515	      7.46647355	      0.13031455	      9.67432336	     -0.28005815	     -7.49999987	     13.67059415	     -0.71270256	      0.96197040	      8.20224112	      0.14315611	      9.64430425	      0.26674199	     -7.49999987	     -5.92372125	      1.50650516	     -2.00992846	    -19.67001049	     -4.06830541	    -33.07172060	     34.86056914	     84.35142485	    -12.01631132	     -6.66287908	    -21.31258691	     23.03248906	     90.66425141
      1.25000000	    -13.31059646	     -0.48107523	      0.70249647	     -1.05082704	      1.38809292	     -0.04512855	     13.34683063	      0.79962543	     -1.40165176	      7.47288120	      0.13042638	      9.58029427	     -0.24213583	     -7.49999987	     13.75280800	     -0.71946912	      1.00483643	      8.21761161	      0.14342438	      9.60625012	      0.47538090	     -7.49999987	     -5.96194262	      1.38360477	     -2.31547130	    -20.29110735	     -3.79530369	    -33.34379283	     35.55093410	     84.41946319	    -12.57032852	     -6.85738276	    -21.65951883	     22.77336719	     90.65785043
      1.25416670	    -13.26042638	     -0.50493826	      0.78013451	     -1.04834437	      1.39108384	     -0.04847332	     13.22536656	      0.77050094	     -1.38285882	      7.44605587	      0.12995819	      9.48452610	     -0.16037050	     -7.49999987	     13.66960885	     -0.67394042	      1.00264165	      8.28369583	      0.14457777	      9.52523305	      0.52944909	     -7.49999987	     -6.09601418	      1.39006440	     -2.37284087	    -20.75052932	     -3.66157704	    -33.40607060	     35.55788757	     84.42680453	    -13.02110690	     -6.89070253	    -21.75699558	     22.56456587	     90.64496602
      1.25833330	    -12.98674972	     -0.54201580	      0.90284602	     -1.04859685	      1.39221309	     -0.04958466	     12.71927590	      0.72974442	     -1.62078134	      7.16139584	      0.12498994	      9.30000202	      0.12237256	     -7.49999987	     13.27153242	     -0.61282896	      1.03358268	      8.21519228	      0.14338215	      9.44209415	      0.78172164	     -7.49999987	     -6.64210902	      1.52066355	     -2.68315611	    -21.25938977	     -3.45550249	    -33.58029756	     36.62068623	     82.76380131	    -13.27629384	     -6.75994195	    -22.40767556	     22.07746048	     88.59170485
